<svg id="Layer_1" data-name="Layer 1" xmlns="http://www.w3.org/2000/svg" viewBox="0 0 1131.4 1190.45"><defs><style>.cls-1{fill:#ff7f5d;}.cls-2{fill:#ffb75d;}</style></defs><path class="cls-1" d="M533.26,1066.15C335.15,1268.23-57.87,1261.62,7.18,760.7c54.94-284.32,226-497.65,378.64-633.12,419.57-338.8,642.72,75.91,440,332.65C685.9,637.52,687.74,908.58,533.26,1066.15Z"/><path class="cls-2" d="M691.32,1024.75c-40.94-29-11-57.68,63.13-27.09,431.55,178.2,297.13-324.75,146.07-482.37-53.5-55.82-20.26-83.32,33-23.88,55.73,62.23,89.21,133.82,116.29,204.91,3.67,9.63,12.78,13.59,20.16,7.76l8.59-6.79c51.3-40.45,72,9.28,31.5,45.55-9.69,8.69-19.4,17.61-28.33,26.55-5.65,5.65-8.06,14.78-6.09,23.19C1092,862.72,1145,1214.14,691.32,1024.75Z"/></svg>